<mxfile host="app.diagrams.net" agent="Mozilla/5.0 (Windows NT 10.0; Win64; x64) AppleWebKit/537.36 (KHTML, like Gecko) Chrome/130.0.0.0 Safari/537.36" version="24.8.2">
  <diagram name="Page-1" id="2YBvvXClWsGukQMizWep">
    <mxGraphModel dx="1434" dy="784" grid="1" gridSize="10" guides="1" tooltips="1" connect="1" arrows="1" fold="1" page="1" pageScale="1" pageWidth="850" pageHeight="1100" math="0" shadow="0">
      <root>
        <mxCell id="0" />
        <mxCell id="1" parent="0" />
        <mxCell id="bn1ZQRTK-a2ZGec2qczR-10" style="edgeStyle=elbowEdgeStyle;rounded=0;orthogonalLoop=1;jettySize=auto;html=1;elbow=horizontal;curved=0;" edge="1" parent="1" source="aM9ryv3xv72pqoxQDRHE-1" target="bn1ZQRTK-a2ZGec2qczR-4">
          <mxGeometry relative="1" as="geometry">
            <Array as="points">
              <mxPoint x="220" y="160" />
            </Array>
          </mxGeometry>
        </mxCell>
        <mxCell id="bn1ZQRTK-a2ZGec2qczR-11" value="&lt;font style=&quot;font-size: 17px;&quot;&gt;Solicita Tarjeta Virtual&lt;/font&gt;" style="edgeLabel;html=1;align=center;verticalAlign=middle;resizable=0;points=[];" vertex="1" connectable="0" parent="bn1ZQRTK-a2ZGec2qczR-10">
          <mxGeometry x="-0.2875" relative="1" as="geometry">
            <mxPoint x="35" as="offset" />
          </mxGeometry>
        </mxCell>
        <mxCell id="aM9ryv3xv72pqoxQDRHE-1" value="&lt;font style=&quot;font-size: 20px;&quot;&gt;Usuario&lt;/font&gt;" style="shape=umlLifeline;perimeter=lifelinePerimeter;whiteSpace=wrap;html=1;container=0;dropTarget=0;collapsible=0;recursiveResize=0;outlineConnect=0;portConstraint=eastwest;newEdgeStyle={&quot;edgeStyle&quot;:&quot;elbowEdgeStyle&quot;,&quot;elbow&quot;:&quot;vertical&quot;,&quot;curved&quot;:0,&quot;rounded&quot;:0};" parent="1" vertex="1">
          <mxGeometry x="40" y="40" width="120" height="800" as="geometry" />
        </mxCell>
        <mxCell id="bn1ZQRTK-a2ZGec2qczR-3" value="&#xa;&lt;span style=&quot;color: rgb(0, 0, 0); font-family: Helvetica; font-size: 20px; font-style: normal; font-variant-ligatures: normal; font-variant-caps: normal; font-weight: 400; letter-spacing: normal; orphans: 2; text-align: center; text-indent: 0px; text-transform: none; widows: 2; word-spacing: 0px; -webkit-text-stroke-width: 0px; white-space: normal; background-color: rgb(251, 251, 251); text-decoration-thickness: initial; text-decoration-style: initial; text-decoration-color: initial; display: inline !important; float: none;&quot;&gt;Usuario&lt;/span&gt;&#xa;&#xa;" style="rounded=0;whiteSpace=wrap;html=1;" vertex="1" parent="1">
          <mxGeometry x="40" y="840" width="120" height="60" as="geometry" />
        </mxCell>
        <mxCell id="bn1ZQRTK-a2ZGec2qczR-12" style="edgeStyle=elbowEdgeStyle;rounded=0;orthogonalLoop=1;jettySize=auto;html=1;elbow=vertical;curved=0;" edge="1" parent="1">
          <mxGeometry relative="1" as="geometry">
            <mxPoint x="350" y="240" as="sourcePoint" />
            <mxPoint x="775" y="240" as="targetPoint" />
            <Array as="points">
              <mxPoint x="570.5" y="240" />
            </Array>
          </mxGeometry>
        </mxCell>
        <mxCell id="bn1ZQRTK-a2ZGec2qczR-13" value="&lt;span style=&quot;font-size: 16px;&quot;&gt;Usuario tiene Customer Id?&lt;/span&gt;" style="edgeLabel;html=1;align=center;verticalAlign=middle;resizable=0;points=[];" vertex="1" connectable="0" parent="bn1ZQRTK-a2ZGec2qczR-12">
          <mxGeometry x="-0.2167" y="-1" relative="1" as="geometry">
            <mxPoint x="37" as="offset" />
          </mxGeometry>
        </mxCell>
        <mxCell id="bn1ZQRTK-a2ZGec2qczR-24" value="&lt;font style=&quot;font-size: 16px;&quot;&gt;No&lt;/font&gt;" style="edgeLabel;html=1;align=center;verticalAlign=middle;resizable=0;points=[];" vertex="1" connectable="0" parent="bn1ZQRTK-a2ZGec2qczR-12">
          <mxGeometry x="0.6918" y="-4" relative="1" as="geometry">
            <mxPoint y="-14" as="offset" />
          </mxGeometry>
        </mxCell>
        <mxCell id="bn1ZQRTK-a2ZGec2qczR-4" value="&lt;font style=&quot;font-size: 20px;&quot;&gt;App&lt;/font&gt;" style="shape=umlLifeline;perimeter=lifelinePerimeter;whiteSpace=wrap;html=1;container=0;dropTarget=0;collapsible=0;recursiveResize=0;outlineConnect=0;portConstraint=eastwest;newEdgeStyle={&quot;edgeStyle&quot;:&quot;elbowEdgeStyle&quot;,&quot;elbow&quot;:&quot;vertical&quot;,&quot;curved&quot;:0,&quot;rounded&quot;:0};" vertex="1" parent="1">
          <mxGeometry x="280" y="40" width="120" height="800" as="geometry" />
        </mxCell>
        <mxCell id="bn1ZQRTK-a2ZGec2qczR-5" value="&lt;br&gt;&lt;span style=&quot;color: rgb(0, 0, 0); font-family: Helvetica; font-size: 20px; font-style: normal; font-variant-ligatures: normal; font-variant-caps: normal; font-weight: 400; letter-spacing: normal; orphans: 2; text-align: center; text-indent: 0px; text-transform: none; widows: 2; word-spacing: 0px; -webkit-text-stroke-width: 0px; white-space: normal; background-color: rgb(251, 251, 251); text-decoration-thickness: initial; text-decoration-style: initial; text-decoration-color: initial; display: inline !important; float: none;&quot;&gt;App&lt;/span&gt;&lt;div&gt;&lt;br/&gt;&lt;/div&gt;" style="rounded=0;whiteSpace=wrap;html=1;" vertex="1" parent="1">
          <mxGeometry x="280" y="840" width="120" height="60" as="geometry" />
        </mxCell>
        <mxCell id="bn1ZQRTK-a2ZGec2qczR-14" style="edgeStyle=elbowEdgeStyle;rounded=0;orthogonalLoop=1;jettySize=auto;html=1;elbow=vertical;curved=0;" edge="1" parent="1" source="bn1ZQRTK-a2ZGec2qczR-6" target="bn1ZQRTK-a2ZGec2qczR-8">
          <mxGeometry relative="1" as="geometry">
            <Array as="points">
              <mxPoint x="930" y="240" />
            </Array>
          </mxGeometry>
        </mxCell>
        <mxCell id="bn1ZQRTK-a2ZGec2qczR-15" value="&lt;font style=&quot;font-size: 17px;&quot;&gt;Solicita la Creación de un Customer&lt;/font&gt;" style="edgeLabel;html=1;align=center;verticalAlign=middle;resizable=0;points=[];" vertex="1" connectable="0" parent="bn1ZQRTK-a2ZGec2qczR-14">
          <mxGeometry x="0.064" y="-3" relative="1" as="geometry">
            <mxPoint x="-14" y="-3" as="offset" />
          </mxGeometry>
        </mxCell>
        <mxCell id="bn1ZQRTK-a2ZGec2qczR-6" value="&lt;font style=&quot;font-size: 20px;&quot;&gt;Cards Service&lt;/font&gt;" style="shape=umlLifeline;perimeter=lifelinePerimeter;whiteSpace=wrap;html=1;container=0;dropTarget=0;collapsible=0;recursiveResize=0;outlineConnect=0;portConstraint=eastwest;newEdgeStyle={&quot;edgeStyle&quot;:&quot;elbowEdgeStyle&quot;,&quot;elbow&quot;:&quot;vertical&quot;,&quot;curved&quot;:0,&quot;rounded&quot;:0};" vertex="1" parent="1">
          <mxGeometry x="680" y="40" width="170" height="800" as="geometry" />
        </mxCell>
        <mxCell id="bn1ZQRTK-a2ZGec2qczR-7" value="&lt;br&gt;&lt;span style=&quot;color: rgb(0, 0, 0); font-family: Helvetica; font-size: 20px; font-style: normal; font-variant-ligatures: normal; font-variant-caps: normal; font-weight: 400; letter-spacing: normal; orphans: 2; text-align: center; text-indent: 0px; text-transform: none; widows: 2; word-spacing: 0px; -webkit-text-stroke-width: 0px; white-space: normal; background-color: rgb(251, 251, 251); text-decoration-thickness: initial; text-decoration-style: initial; text-decoration-color: initial; display: inline !important; float: none;&quot;&gt;Cards Service&lt;/span&gt;&lt;div&gt;&lt;br&gt;&lt;/div&gt;" style="rounded=0;whiteSpace=wrap;html=1;" vertex="1" parent="1">
          <mxGeometry x="680" y="840" width="170" height="60" as="geometry" />
        </mxCell>
        <mxCell id="bn1ZQRTK-a2ZGec2qczR-16" style="edgeStyle=elbowEdgeStyle;rounded=0;orthogonalLoop=1;jettySize=auto;html=1;elbow=horizontal;curved=0;" edge="1" parent="1" source="bn1ZQRTK-a2ZGec2qczR-8" target="bn1ZQRTK-a2ZGec2qczR-6">
          <mxGeometry relative="1" as="geometry">
            <Array as="points">
              <mxPoint x="940" y="320" />
            </Array>
          </mxGeometry>
        </mxCell>
        <mxCell id="bn1ZQRTK-a2ZGec2qczR-17" value="&lt;font style=&quot;font-size: 16px;&quot;&gt;Confirma creación de Customer y retorna token&lt;/font&gt;" style="edgeLabel;html=1;align=center;verticalAlign=middle;resizable=0;points=[];" vertex="1" connectable="0" parent="bn1ZQRTK-a2ZGec2qczR-16">
          <mxGeometry x="-0.1173" y="-2" relative="1" as="geometry">
            <mxPoint x="-23" as="offset" />
          </mxGeometry>
        </mxCell>
        <mxCell id="bn1ZQRTK-a2ZGec2qczR-8" value="&lt;font style=&quot;font-size: 20px;&quot;&gt;CaaS - UnDosTres&lt;/font&gt;" style="shape=umlLifeline;perimeter=lifelinePerimeter;whiteSpace=wrap;html=1;container=0;dropTarget=0;collapsible=0;recursiveResize=0;outlineConnect=0;portConstraint=eastwest;newEdgeStyle={&quot;edgeStyle&quot;:&quot;elbowEdgeStyle&quot;,&quot;elbow&quot;:&quot;vertical&quot;,&quot;curved&quot;:0,&quot;rounded&quot;:0};" vertex="1" parent="1">
          <mxGeometry x="1160" y="40" width="200" height="800" as="geometry" />
        </mxCell>
        <mxCell id="bn1ZQRTK-a2ZGec2qczR-9" value="&lt;div&gt;&lt;span style=&quot;font-size: 20px;&quot;&gt;CaaS - UnDosTres&lt;/span&gt;&lt;/div&gt;" style="rounded=0;whiteSpace=wrap;html=1;" vertex="1" parent="1">
          <mxGeometry x="1160" y="840" width="200" height="60" as="geometry" />
        </mxCell>
        <mxCell id="bn1ZQRTK-a2ZGec2qczR-19" style="edgeStyle=elbowEdgeStyle;rounded=0;orthogonalLoop=1;jettySize=auto;html=1;elbow=vertical;curved=0;" edge="1" parent="1" source="bn1ZQRTK-a2ZGec2qczR-6" target="bn1ZQRTK-a2ZGec2qczR-6">
          <mxGeometry relative="1" as="geometry">
            <mxPoint x="820" y="427" as="sourcePoint" />
            <mxPoint x="820" y="447" as="targetPoint" />
            <Array as="points">
              <mxPoint x="760" y="387" />
            </Array>
          </mxGeometry>
        </mxCell>
        <mxCell id="bn1ZQRTK-a2ZGec2qczR-21" value="&lt;font style=&quot;font-size: 16px;&quot;&gt;Asigna Customer Id&lt;/font&gt;&lt;div&gt;&lt;font style=&quot;font-size: 16px;&quot;&gt;al Usuario&lt;/font&gt;&lt;/div&gt;" style="edgeLabel;html=1;align=center;verticalAlign=middle;resizable=0;points=[];" vertex="1" connectable="0" parent="bn1ZQRTK-a2ZGec2qczR-19">
          <mxGeometry x="0.3983" y="1" relative="1" as="geometry">
            <mxPoint x="-153" y="-11" as="offset" />
          </mxGeometry>
        </mxCell>
        <mxCell id="bn1ZQRTK-a2ZGec2qczR-25" value="" style="endArrow=classic;html=1;rounded=0;" edge="1" parent="1">
          <mxGeometry width="50" height="50" relative="1" as="geometry">
            <mxPoint x="520" y="270" as="sourcePoint" />
            <mxPoint x="760" y="520" as="targetPoint" />
            <Array as="points">
              <mxPoint x="520" y="520" />
              <mxPoint x="760" y="520" />
            </Array>
          </mxGeometry>
        </mxCell>
        <mxCell id="bn1ZQRTK-a2ZGec2qczR-26" value="&lt;font style=&quot;font-size: 17px;&quot;&gt;Si&lt;/font&gt;" style="edgeLabel;html=1;align=center;verticalAlign=middle;resizable=0;points=[];" vertex="1" connectable="0" parent="bn1ZQRTK-a2ZGec2qczR-25">
          <mxGeometry x="0.4436" y="4" relative="1" as="geometry">
            <mxPoint x="23" y="4" as="offset" />
          </mxGeometry>
        </mxCell>
        <mxCell id="bn1ZQRTK-a2ZGec2qczR-27" style="edgeStyle=elbowEdgeStyle;rounded=0;orthogonalLoop=1;jettySize=auto;html=1;elbow=vertical;curved=0;entryX=0.475;entryY=0.604;entryDx=0;entryDy=0;entryPerimeter=0;" edge="1" parent="1" source="bn1ZQRTK-a2ZGec2qczR-6" target="bn1ZQRTK-a2ZGec2qczR-8">
          <mxGeometry relative="1" as="geometry" />
        </mxCell>
        <mxCell id="bn1ZQRTK-a2ZGec2qczR-28" value="&lt;font style=&quot;font-size: 16px;&quot;&gt;Solicita Tarjeta Digital&lt;/font&gt;" style="edgeLabel;html=1;align=center;verticalAlign=middle;resizable=0;points=[];" vertex="1" connectable="0" parent="bn1ZQRTK-a2ZGec2qczR-27">
          <mxGeometry x="-0.1665" y="1" relative="1" as="geometry">
            <mxPoint x="42" as="offset" />
          </mxGeometry>
        </mxCell>
        <mxCell id="bn1ZQRTK-a2ZGec2qczR-30" style="edgeStyle=elbowEdgeStyle;rounded=0;orthogonalLoop=1;jettySize=auto;html=1;elbow=vertical;curved=0;entryX=0.494;entryY=0.694;entryDx=0;entryDy=0;entryPerimeter=0;" edge="1" parent="1" source="bn1ZQRTK-a2ZGec2qczR-8" target="bn1ZQRTK-a2ZGec2qczR-6">
          <mxGeometry relative="1" as="geometry" />
        </mxCell>
        <mxCell id="bn1ZQRTK-a2ZGec2qczR-31" value="&lt;font style=&quot;font-size: 16px;&quot;&gt;Responde con los datos de la tarjeta generada&lt;/font&gt;" style="edgeLabel;html=1;align=center;verticalAlign=middle;resizable=0;points=[];" vertex="1" connectable="0" parent="bn1ZQRTK-a2ZGec2qczR-30">
          <mxGeometry x="0.1196" y="-2" relative="1" as="geometry">
            <mxPoint x="29" as="offset" />
          </mxGeometry>
        </mxCell>
        <mxCell id="bn1ZQRTK-a2ZGec2qczR-33" value="&lt;font style=&quot;font-size: 16px;&quot;&gt;La Tarjeta Digital, queda activa en el momento que se solicita&lt;/font&gt;" style="shape=note;whiteSpace=wrap;html=1;backgroundOutline=1;darkOpacity=0.05;" vertex="1" parent="1">
          <mxGeometry x="480" y="630" width="130" height="150" as="geometry" />
        </mxCell>
      </root>
    </mxGraphModel>
  </diagram>
</mxfile>
